<?xml version="1.0" encoding="UTF-8"?>
<svg version="1.1" xmlns="http://www.w3.org/2000/svg" width="1024" height="1024">
<path d="M0 0 C337.92 0 675.84 0 1024 0 C1024 337.92 1024 675.84 1024 1024 C686.08 1024 348.16 1024 0 1024 C0 686.08 0 348.16 0 0 Z " fill="#2C93FA" transform="translate(0,0)"/>
<path d="M0 0 C0.89383896 -0.00085602 1.78767792 -0.00171204 2.70860291 -0.00259399 C5.73107865 -0.00425703 8.75349972 0.00128715 11.77597046 0.00672913 C13.96890956 0.00703527 16.16184877 0.0069023 18.35478783 0.00636387 C24.24500216 0.00613745 30.13519632 0.0119472 36.02540588 0.0189743 C41.54585842 0.02465528 47.06630596 0.02493666 52.58676147 0.02565002 C68.74797836 0.03090427 84.90919146 0.04486533 101.07040405 0.05775452 C137.16415405 0.07837952 173.25790405 0.09900452 210.44540405 0.12025452 C210.44540405 75.69025452 210.44540405 151.26025452 210.44540405 229.12025452 C209.78540405 229.12025452 209.12540405 229.12025452 208.44540405 229.12025452 C208.52790405 230.37837952 208.61040405 231.63650452 208.69540405 232.93275452 C208.72635584 243.73492665 205.50685118 254.81889864 202.44540405 265.12025452 C201.78540405 265.12025452 201.12540405 265.12025452 200.44540405 265.12025452 C200.44540405 267.10025452 200.44540405 269.08025452 200.44540405 271.12025452 C199.78540405 271.12025452 199.12540405 271.12025452 198.44540405 271.12025452 C198.44540405 272.77025452 198.44540405 274.42025452 198.44540405 276.12025452 C197.78540405 276.12025452 197.12540405 276.12025452 196.44540405 276.12025452 C196.39641968 276.75834045 196.3474353 277.39642639 196.29696655 278.05384827 C196.22220093 278.88013733 196.1474353 279.70642639 196.07040405 280.55775452 C196.00079468 281.38146545 195.9311853 282.20517639 195.85946655 283.05384827 C195.72282593 283.73576233 195.5861853 284.41767639 195.44540405 285.12025452 C194.78540405 285.45025452 194.12540405 285.78025452 193.44540405 286.12025452 C192.79327114 288.14488707 192.79327114 288.14488707 192.44540405 290.12025452 C191.78540405 290.12025452 191.12540405 290.12025452 190.44540405 290.12025452 C190.30102905 291.06900452 190.15665405 292.01775452 190.00790405 292.99525452 C189.44540405 296.12025452 189.44540405 296.12025452 188.44540405 298.12025452 C187.78540405 298.12025452 187.12540405 298.12025452 186.44540405 298.12025452 C186.44540405 299.44025452 186.44540405 300.76025452 186.44540405 302.12025452 C185.78540405 302.12025452 185.12540405 302.12025452 184.44540405 302.12025452 C184.17727905 303.08962952 183.90915405 304.05900452 183.63290405 305.05775452 C183.24102905 306.06837952 182.84915405 307.07900452 182.44540405 308.12025452 C181.45540405 308.45025452 180.46540405 308.78025452 179.44540405 309.12025452 C179.32165405 309.86275452 179.19790405 310.60525452 179.07040405 311.37025452 C178.49053704 313.92166936 177.70831666 315.84701182 176.44540405 318.12025452 C175.78540405 318.12025452 175.12540405 318.12025452 174.44540405 318.12025452 C174.21852905 319.00712952 173.99165405 319.89400452 173.75790405 320.80775452 C172.25554055 324.59943383 170.37518347 326.33339117 167.44540405 329.12025452 C166.88852905 330.04837952 166.33165405 330.97650452 165.75790405 331.93275452 C165.32477905 332.65462952 164.89165405 333.37650452 164.44540405 334.12025452 C163.78540405 334.12025452 163.12540405 334.12025452 162.44540405 334.12025452 C162.44540405 334.78025452 162.44540405 335.44025452 162.44540405 336.12025452 C160.82363709 337.83064262 159.14661364 339.48886201 157.44540405 341.12025452 C156.50041387 342.08158835 155.55902433 343.04647427 154.6211853 344.01478577 C153.66678315 344.98746648 152.71235593 345.9601226 151.75790405 346.93275452 C151.27257202 347.43484436 150.78723999 347.9369342 150.28720093 348.45423889 C149.04415799 349.71442725 147.74840514 350.92216495 146.44540405 352.12025452 C145.78540405 352.12025452 145.12540405 352.12025452 144.44540405 352.12025452 C144.44540405 352.78025452 144.44540405 353.44025452 144.44540405 354.12025452 C141.03913804 358.03115253 137.35559038 360.48352574 132.44540405 362.12025452 C132.44540405 362.78025452 132.44540405 363.44025452 132.44540405 364.12025452 C131.78540405 364.12025452 131.12540405 364.12025452 130.44540405 364.12025452 C130.44540405 364.78025452 130.44540405 365.44025452 130.44540405 366.12025452 C128.46540405 366.78025452 126.48540405 367.44025452 124.44540405 368.12025452 C124.44540405 368.78025452 124.44540405 369.44025452 124.44540405 370.12025452 C123.78540405 370.12025452 123.12540405 370.12025452 122.44540405 370.12025452 C122.44540405 370.78025452 122.44540405 371.44025452 122.44540405 372.12025452 C121.15626918 372.79180385 119.86400201 373.45734311 118.57040405 374.12025452 C117.85110718 374.49150452 117.1318103 374.86275452 116.39071655 375.24525452 C114.44540405 376.12025452 114.44540405 376.12025452 112.44540405 376.12025452 C112.44540405 376.78025452 112.44540405 377.44025452 112.44540405 378.12025452 C111.28782593 378.69388733 110.1302478 379.26752014 108.93759155 379.85853577 C106.10568085 381.27199934 103.30123269 382.72306623 100.51571655 384.22572327 C93.07505086 388.18368216 87.07156158 391.12025452 78.44540405 391.12025452 C78.11540405 392.11025452 77.78540405 393.10025452 77.44540405 394.12025452 C73.64548206 396.02021551 69.51844428 396.95652874 65.44540405 398.12025452 C64.68356812 398.43736389 63.92173218 398.75447327 63.1368103 399.08119202 C60.08694639 400.25864311 57.06873407 401.01432249 53.88290405 401.74525452 C52.76786499 402.00564514 51.65282593 402.26603577 50.5039978 402.53431702 C47.44540405 403.12025452 47.44540405 403.12025452 43.44540405 403.12025452 C43.44540405 403.78025452 43.44540405 404.44025452 43.44540405 405.12025452 C32.25947575 405.97010341 21.13384755 406.30661599 9.91757202 406.30555725 C7.31600912 406.30775823 4.71486217 406.32604793 2.1133728 406.34486389 C-11.93880807 406.39209657 -24.95629846 404.83903775 -38.55459595 401.12025452 C-39.99715011 400.74336184 -41.43987015 400.36710372 -42.88272095 399.99134827 C-50.8328308 397.88836191 -58.42728075 395.57318361 -65.9647522 392.23353577 C-68.30988684 391.22544621 -70.61568905 390.42616464 -73.05459595 389.68275452 C-78.86292344 387.82030168 -84.17151896 384.95495995 -89.55459595 382.12025452 C-90.85397095 381.44736389 -90.85397095 381.44736389 -92.17959595 380.76087952 C-96.26026575 378.58631205 -99.37626868 376.52560516 -102.55459595 373.12025452 C-105.0146318 371.5764565 -107.51838243 370.14045487 -110.05459595 368.72572327 C-117.62133418 364.43396393 -117.62133418 364.43396393 -120.17959595 361.05775452 C-122.33539529 358.39137112 -123.57714241 357.34850028 -126.42959595 355.68275452 C-130.72461847 353.15963292 -134.52828253 350.11120533 -137.55459595 346.12025452 C-137.55459595 345.13025452 -137.55459595 344.14025452 -137.55459595 343.12025452 C-138.21459595 343.12025452 -138.87459595 343.12025452 -139.55459595 343.12025452 C-139.55459595 342.46025452 -139.55459595 341.80025452 -139.55459595 341.12025452 C-140.21459595 341.12025452 -140.87459595 341.12025452 -141.55459595 341.12025452 C-144.10174172 338.65777841 -146.28765762 335.83971856 -148.55459595 333.12025452 C-149.27389282 332.27591858 -149.9931897 331.43158264 -150.73428345 330.56166077 C-165.55459595 312.89523289 -165.55459595 312.89523289 -165.55459595 306.12025452 C-166.21459595 306.12025452 -166.87459595 306.12025452 -167.55459595 306.12025452 C-167.55459595 305.46025452 -167.55459595 304.80025452 -167.55459595 304.12025452 C-168.54459595 304.12025452 -169.53459595 304.12025452 -170.55459595 304.12025452 C-171.90047921 301.56367717 -173.23134922 299.00101547 -174.55459595 296.43275452 C-174.93615845 295.71152405 -175.31772095 294.99029358 -175.71084595 294.24720764 C-177.67080434 290.41478899 -179.11333848 287.54654303 -178.55459595 283.12025452 C-179.21459595 283.12025452 -179.87459595 283.12025452 -180.55459595 283.12025452 C-182.30144903 279.29280001 -182.90345928 275.99582729 -183.17959595 271.80775452 C-183.25436157 270.7391217 -183.3291272 269.67048889 -183.40615845 268.56947327 C-183.47963501 267.35710999 -183.47963501 267.35710999 -183.55459595 266.12025452 C-184.21459595 266.12025452 -184.87459595 266.12025452 -185.55459595 266.12025452 C-187.14586485 261.24699351 -187.76651815 257.31234856 -187.55459595 252.12025452 C-188.21459595 252.12025452 -188.87459595 252.12025452 -189.55459595 252.12025452 C-189.74795532 251.08384827 -189.9413147 250.04744202 -190.14053345 248.97962952 C-190.40324462 247.60977843 -190.66628266 246.23998999 -190.92959595 244.87025452 C-191.11908813 243.84738342 -191.11908813 243.84738342 -191.31240845 242.80384827 C-192.04785229 238.89341479 -192.04785229 238.89341479 -193.56924438 235.24549866 C-197.70017264 226.33575376 -195.71220162 212.72037391 -195.67959595 202.93275452 C-195.67870972 202.16555084 -195.67782349 201.39834717 -195.6769104 200.6078949 C-195.66172613 189.42015574 -195.45614614 178.27693813 -194.55459595 167.12025452 C-193.89459595 167.12025452 -193.23459595 167.12025452 -192.55459595 167.12025452 C-192.40764282 165.52697327 -192.40764282 165.52697327 -192.25772095 163.90150452 C-190.91116429 150.71367498 -190.91116429 150.71367498 -187.57022095 145.11634827 C-184.98216602 140.02982492 -184.0119114 133.92277739 -183.0975647 128.31947327 C-182.91838501 127.59373108 -182.73920532 126.86798889 -182.55459595 126.12025452 C-181.56459595 125.62525452 -181.56459595 125.62525452 -180.55459595 125.12025452 C-179.53247664 123.36655313 -179.53247664 123.36655313 -178.60147095 121.21791077 C-178.23247681 120.4146637 -177.86348267 119.61141663 -177.48330688 118.78382874 C-177.09433228 117.92547424 -176.70535767 117.06711975 -176.30459595 116.18275452 C-173.44754449 110.00698691 -170.53627058 104.02513323 -166.8944397 98.26478577 C-165.0216689 95.2672605 -163.38044497 92.15476589 -161.7303772 89.03041077 C-160.55459595 87.12025452 -160.55459595 87.12025452 -158.9725647 85.55384827 C-157.29023864 84.06435924 -157.29023864 84.06435924 -156.55459595 81.12025452 C-155.89459595 81.12025452 -155.23459595 81.12025452 -154.55459595 81.12025452 C-154.55459595 80.13025452 -154.55459595 79.14025452 -154.55459595 78.12025452 C-153.56459595 77.46025452 -152.57459595 76.80025452 -151.55459595 76.12025452 C-151.05959595 74.63525452 -151.05959595 74.63525452 -150.55459595 73.12025452 C-149.89459595 73.12025452 -149.23459595 73.12025452 -148.55459595 73.12025452 C-148.32425659 72.56539368 -148.09391724 72.01053284 -147.8565979 71.43885803 C-146.19656881 68.48268022 -144.11720993 66.42338643 -141.7225647 64.02259827 C-141.24893997 63.54706009 -140.77531525 63.07152191 -140.28733826 62.58157349 C-139.28700327 61.57988143 -138.2841538 60.58069492 -137.27896118 59.58387756 C-135.75065023 58.06624901 -134.23326786 56.53828484 -132.71670532 55.00892639 C-131.74013215 54.03367536 -130.76293846 53.0590452 -129.7850647 52.08509827 C-128.90229858 51.20458801 -128.01953247 50.32407776 -127.11001587 49.41688538 C-124.70055064 47.25142828 -122.3469731 45.73448285 -119.55459595 44.12025452 C-118.77084595 43.31587952 -117.98709595 42.51150452 -117.17959595 41.68275452 C-114.13737934 38.71297164 -111.28074156 37.15269758 -107.55459595 35.12025452 C-106.83272095 34.54275452 -106.11084595 33.96525452 -105.36709595 33.37025452 C-103.55459595 32.12025452 -103.55459595 32.12025452 -99.55459595 32.12025452 C-99.05959595 30.63525452 -99.05959595 30.63525452 -98.55459595 29.12025452 C-96.44754081 27.72841106 -94.39397277 26.50307229 -92.17959595 25.30775452 C-91.23273926 24.7854425 -91.23273926 24.7854425 -90.26675415 24.25257874 C-88.97771257 23.54242662 -87.68677154 22.83571139 -86.39395142 22.13246155 C-84.74673425 21.22598924 -83.11982244 20.2828452 -81.4960022 19.33509827 C-75.85700731 16.07967852 -70.99025086 14.17527991 -64.55459595 13.12025452 C-64.55459595 12.46025452 -64.55459595 11.80025452 -64.55459595 11.12025452 C-63.86236938 10.95009827 -63.17014282 10.77994202 -62.4569397 10.60462952 C-57.22615114 9.30899283 -52.00636547 7.98411921 -46.80361938 6.57948303 C-44.87053123 6.05868003 -42.9355641 5.54548671 -40.99990845 5.03431702 C-39.07396976 4.52335369 -37.14994077 4.00444411 -35.23428345 3.45619202 C-29.14308488 1.85575945 -22.93847932 1.70850319 -16.67251587 1.46131897 C-10.92441413 1.22412669 -5.83250431 -0.02007932 0 0 Z " fill="#FEFEFE" transform="translate(363.5545959472656,487.87974548339844)"/>
<path d="M0 0 C2.32086619 0.00539622 4.6415417 0.00000016 6.96240234 -0.00634766 C16.43532892 -0.01166707 25.53193806 0.14302412 34.74755859 2.63037109 C38.67224267 3.68115666 42.54317002 4.51147271 46.56005859 5.13037109 C46.56005859 5.79037109 46.56005859 6.45037109 46.56005859 7.13037109 C47.16849609 7.18193359 47.77693359 7.23349609 48.40380859 7.28662109 C57.13537426 8.41658841 64.05216443 12.06291474 71.70654297 16.14941406 C74.23594534 17.48807828 76.80260715 18.74669604 79.37255859 20.00537109 C81.9389091 21.26866928 84.16545763 22.53397045 86.56005859 24.13037109 C86.56005859 24.79037109 86.56005859 25.45037109 86.56005859 26.13037109 C87.11693359 26.23349609 87.67380859 26.33662109 88.24755859 26.44287109 C91.04480417 27.27448464 93.10428982 28.55166259 95.56005859 30.13037109 C96.55005859 30.74912109 97.54005859 31.36787109 98.56005859 32.00537109 C101.57821167 34.14322952 103.95097798 36.52129048 106.56005859 39.13037109 C107.28708984 39.53255859 108.01412109 39.93474609 108.76318359 40.34912109 C112.59169631 42.78739176 115.56852072 45.84897068 118.74755859 49.06787109 C119.69018555 49.99889648 119.69018555 49.99889648 120.65185547 50.94873047 C121.25449219 51.55394531 121.85712891 52.15916016 122.47802734 52.78271484 C123.02225342 53.32919678 123.56647949 53.87567871 124.12719727 54.4387207 C125.56005859 56.13037109 125.56005859 56.13037109 126.56518555 58.27709961 C127.47675962 60.48387783 127.47675962 60.48387783 130.56005859 61.13037109 C132.63536247 64.05116914 133.56005859 65.5058384 133.56005859 69.13037109 C134.22005859 69.13037109 134.88005859 69.13037109 135.56005859 69.13037109 C138.89824698 72.88583303 141.56005859 76.01050806 141.56005859 81.13037109 C142.22005859 81.13037109 142.88005859 81.13037109 143.56005859 81.13037109 C149.25179179 91.18934611 149.25179179 91.18934611 150.74755859 95.75537109 C151.14974609 96.93099609 151.14974609 96.93099609 151.56005859 98.13037109 C152.55005859 98.46037109 153.54005859 98.79037109 154.56005859 99.13037109 C154.56005859 100.78037109 154.56005859 102.43037109 154.56005859 104.13037109 C155.22005859 104.13037109 155.88005859 104.13037109 156.56005859 104.13037109 C156.83269531 105.273125 156.83269531 105.273125 157.11083984 106.43896484 C158.65662271 112.78856525 160.43731213 118.95401839 162.56005859 125.13037109 C164.09129049 129.89420366 164.90179506 134.34719798 165.31396484 139.31005859 C165.37515918 141.14747098 165.37515918 141.14747098 166.56005859 142.13037109 C166.65777366 144.60929081 166.69001817 147.06031886 166.68031311 149.53968811 C166.68159475 150.71703283 166.68159475 150.71703283 166.68290228 151.91816229 C166.68455946 154.56842968 166.67903183 157.21863485 166.67358398 159.86889648 C166.67330214 161.76064553 166.6734598 163.65239469 166.67402649 165.54414368 C166.67431456 170.69682219 166.66841624 175.84947764 166.66145253 181.00215077 C166.65522063 186.38070005 166.65461533 191.7592498 166.65342712 197.13780212 C166.65031332 207.33048934 166.64209928 217.52316588 166.63207763 227.71584839 C166.62091801 239.31661678 166.61540643 250.91738566 166.6103822 262.51815808 C166.5999167 286.38890167 166.58231632 310.25963579 166.56005859 334.13037109 C142.62125229 334.15370914 118.68244769 334.17135474 94.74363232 334.18218327 C83.62897042 334.18734429 72.51431557 334.19438332 61.3996582 334.20581055 C51.71456803 334.21576327 42.02948297 334.22222593 32.34438783 334.22445959 C27.21401831 334.22576569 22.08366341 334.22884524 16.95329857 334.23610115 C12.12794266 334.24287063 7.30260745 334.24498615 2.47724724 334.24347878 C0.70308062 334.24375468 -1.07108666 334.24575432 -2.84524918 334.24957657 C-5.26146727 334.25452826 -7.67760649 334.25336387 -10.09382629 334.25062561 C-11.15462024 334.25499487 -11.15462024 334.25499487 -12.23684436 334.2594524 C-15.25732803 334.25015612 -17.54823291 334.09427392 -20.43994141 333.13037109 C-22.33206878 332.90857324 -24.22878613 332.72423094 -26.12744141 332.56787109 C-27.12130859 332.48408203 -28.11517578 332.40029297 -29.13916016 332.31396484 C-29.89841797 332.25337891 -30.65767578 332.19279297 -31.43994141 332.13037109 C-31.43994141 331.47037109 -31.43994141 330.81037109 -31.43994141 330.13037109 C-32.55240234 330.19095703 -33.66486328 330.25154297 -34.81103516 330.31396484 C-40.03653639 330.31281461 -44.57759781 328.81469223 -49.50244141 327.19287109 C-55.15916703 325.36387729 -60.51652647 323.76530974 -66.43994141 323.13037109 C-66.43994141 322.47037109 -66.43994141 321.81037109 -66.43994141 321.13037109 C-67.02420898 321.003479 -67.60847656 320.87658691 -68.21044922 320.74584961 C-70.39754248 320.14207583 -72.12343841 319.36260979 -74.11181641 318.28271484 C-74.77568359 317.925 -75.43955078 317.56728516 -76.12353516 317.19873047 C-77.14640625 316.63895508 -77.14640625 316.63895508 -78.18994141 316.06787109 C-78.88732422 315.69082031 -79.58470703 315.31376953 -80.30322266 314.92529297 C-82.01762443 313.99763721 -83.72907802 313.06453655 -85.43994141 312.13037109 C-85.43994141 311.47037109 -85.43994141 310.81037109 -85.43994141 310.13037109 C-86.01744141 310.02595703 -86.59494141 309.92154297 -87.18994141 309.81396484 C-89.78848757 309.02447599 -91.32431261 307.88289488 -93.43994141 306.19287109 C-96.02583893 304.13728459 -98.4883998 302.59689908 -101.43994141 301.13037109 C-102.77327474 299.79703776 -104.10660807 298.46370443 -105.43994141 297.13037109 C-106.13603516 296.75783203 -106.83212891 296.38529297 -107.54931641 296.00146484 C-111.80897223 293.24420114 -115.18301785 289.71574381 -118.75244141 286.13037109 C-119.49300781 285.40591797 -120.23357422 284.68146484 -120.99658203 283.93505859 C-122.04555664 282.88705078 -122.04555664 282.88705078 -123.11572266 281.81787109 C-124.07345581 280.86460937 -124.07345581 280.86460937 -125.05053711 279.89208984 C-126.43994141 278.13037109 -126.43994141 278.13037109 -126.43994141 275.13037109 C-127.09994141 275.13037109 -127.75994141 275.13037109 -128.43994141 275.13037109 C-128.43994141 274.47037109 -128.43994141 273.81037109 -128.43994141 273.13037109 C-129.09994141 273.13037109 -129.75994141 273.13037109 -130.43994141 273.13037109 C-135.78180105 267.47569985 -144.43994141 258.25436548 -144.43994141 250.13037109 C-145.09994141 250.13037109 -145.75994141 250.13037109 -146.43994141 250.13037109 C-146.43994141 248.81037109 -146.43994141 247.49037109 -146.43994141 246.13037109 C-147.09994141 246.13037109 -147.75994141 246.13037109 -148.43994141 246.13037109 C-148.83826172 245.32212891 -149.23658203 244.51388672 -149.64697266 243.68115234 C-150.17677734 242.61251953 -150.70658203 241.54388672 -151.25244141 240.44287109 C-151.77451172 239.38712891 -152.29658203 238.33138672 -152.83447266 237.24365234 C-154.3697988 234.17290508 -154.3697988 234.17290508 -156.04541016 231.50927734 C-157.36737085 229.25416792 -158.18437726 227.2469338 -158.93994141 224.75537109 C-159.76635192 222.04986048 -160.67791391 219.63151965 -161.90087891 217.06787109 C-164.06261375 212.09374327 -164.7341878 206.83230911 -165.56494141 201.50537109 C-165.73670898 200.43013184 -165.90847656 199.35489258 -166.08544922 198.24707031 C-167.2338168 190.88079402 -168.21644065 183.5897089 -168.43994141 176.13037109 C-168.49150391 174.90189453 -168.54306641 173.67341797 -168.59619141 172.40771484 C-169.01129721 157.5835128 -167.08093783 142.83823798 -165.43994141 128.13037109 C-164.77994141 128.13037109 -164.11994141 128.13037109 -163.43994141 128.13037109 C-163.48119141 127.28474609 -163.52244141 126.43912109 -163.56494141 125.56787109 C-163.42459113 121.7082384 -162.61213976 118.79349096 -161.43994141 115.13037109 C-160.44994141 115.13037109 -159.45994141 115.13037109 -158.43994141 115.13037109 C-158.52244141 114.32599609 -158.60494141 113.52162109 -158.68994141 112.69287109 C-158.40252599 108.59720148 -157.14633723 105.91481925 -155.39697266 102.25537109 C-154.34047398 99.90951281 -153.76904263 97.6809056 -153.43994141 95.13037109 C-152.44994141 95.13037109 -151.45994141 95.13037109 -150.43994141 95.13037109 C-150.33681641 94.61474609 -150.23369141 94.09912109 -150.12744141 93.56787109 C-149.20238104 90.28811162 -147.81408127 87.23992703 -146.43994141 84.13037109 C-145.87590166 82.81853205 -145.31333686 81.5060576 -144.75244141 80.19287109 C-144.31931641 79.18224609 -143.88619141 78.17162109 -143.43994141 77.13037109 C-142.44994141 77.13037109 -141.45994141 77.13037109 -140.43994141 77.13037109 C-140.10994141 75.15037109 -139.77994141 73.17037109 -139.43994141 71.13037109 C-138.77994141 71.13037109 -138.11994141 71.13037109 -137.43994141 71.13037109 C-137.43994141 70.14037109 -137.43994141 69.15037109 -137.43994141 68.13037109 C-135.95494141 67.14037109 -135.95494141 67.14037109 -134.43994141 66.13037109 C-133.94494141 64.64537109 -133.94494141 64.64537109 -133.43994141 63.13037109 C-132.77994141 63.13037109 -132.11994141 63.13037109 -131.43994141 63.13037109 C-131.1735083 62.53796631 -130.9070752 61.94556152 -130.63256836 61.33520508 C-129.41548923 59.08516585 -128.17694513 57.63705498 -126.35791016 55.85302734 C-125.75527344 55.25683594 -125.15263672 54.66064453 -124.53173828 54.04638672 C-123.90332031 53.43472656 -123.27490234 52.82306641 -122.62744141 52.19287109 C-122.010625 51.58507812 -121.39380859 50.97728516 -120.75830078 50.35107422 C-119.54942316 49.16018202 -118.33877675 47.9710822 -117.1262207 46.78393555 C-114.29139909 44.0041112 -111.45826033 41.22412105 -108.75244141 38.31787109 C-107.43994141 37.13037109 -107.43994141 37.13037109 -105.43994141 37.13037109 C-105.43994141 36.47037109 -105.43994141 35.81037109 -105.43994141 35.13037109 C-103.64957682 34.15380859 -101.85921224 33.17724609 -100.06884766 32.20068359 C-98.27375825 31.21627085 -98.27375825 31.21627085 -97.43994141 29.13037109 C-95.76025391 28.05224609 -95.76025391 28.05224609 -93.56494141 26.88037109 C-92.75541016 26.44595703 -91.94587891 26.01154297 -91.11181641 25.56396484 C-90.23009766 25.09087891 -89.34837891 24.61779297 -88.43994141 24.13037109 C-87.51697266 23.60572266 -86.59400391 23.08107422 -85.64306641 22.54052734 C-80.63011498 19.70862523 -76.07199818 17.38193926 -70.43994141 16.13037109 C-70.43994141 15.47037109 -70.43994141 14.81037109 -70.43994141 14.13037109 C-69.49119141 13.88287109 -68.54244141 13.63537109 -67.56494141 13.38037109 C-63.51558699 12.230453 -59.6762687 10.65771451 -55.77978516 9.07568359 C-50.56770959 6.96997026 -45.50613225 5.73262563 -40.00244141 4.70068359 C-37.59669719 4.16525881 -35.42852335 3.43923668 -33.12744141 2.56787109 C-22.78112716 -1.0055308 -10.84267101 -0.02998399 0 0 Z " fill="#FEFEFE" transform="translate(408.43994140625,129.86962890625)"/>
<path d="M0 0 C0 0.66 0 1.32 0 2 C0.65355469 2.08765625 1.30710937 2.1753125 1.98046875 2.265625 C6.02658074 3.24967294 9.56822147 4.9536144 13.3125 6.75 C14.44655273 7.290802 14.44655273 7.290802 15.60351562 7.8425293 C20.6279606 10.26844164 25.47983406 12.70404567 30 16 C30.33 16.99 30.66 17.98 31 19 C31.99 19 32.98 19 34 19 C34 19.66 34 20.32 34 21 C34.89436768 21.08088867 35.78873535 21.16177734 36.71020508 21.24511719 C40.55414532 22.12715527 41.8993063 23.29130718 44.63671875 26.078125 C45.46107422 26.90957031 46.28542969 27.74101562 47.13476562 28.59765625 C48.39836914 29.91056641 48.39836914 29.91056641 49.6875 31.25 C50.54150391 32.10980469 51.39550781 32.96960938 52.27539062 33.85546875 C56.08953108 37.74451377 59.21370773 41.31551901 62 46 C63.3921875 47.2684375 63.3921875 47.2684375 64.8125 48.5625 C68.50997081 52.11353632 70.38292908 56.36729114 72.54296875 60.9609375 C74.20467692 64.42691326 76.1104037 67.68962114 78.1171875 70.96484375 C79.18526047 73.42708275 79.15706386 75.34377296 79 78 C79.66 78 80.32 78 81 78 C84.37601015 83.5945311 85.14305965 89.35560446 86.125 95.75 C86.29386719 96.78382813 86.46273437 97.81765625 86.63671875 98.8828125 C89.60451226 117.43736405 89.88335058 134.58929645 86 153 C85.66582666 154.66649844 85.33209316 156.33308578 85 158 C84.34 158 83.68 158 83 158 C83.0825 158.94875 83.165 159.8975 83.25 160.875 C83.29215976 166.00795078 81.07385016 170.39864495 79 175 C78.34 175 77.68 175 77 175 C77 176.65 77 178.3 77 180 C76.34 180 75.68 180 75 180 C74.8453125 180.7734375 74.8453125 180.7734375 74.6875 181.5625 C73.75736134 184.86026435 72.38604488 187.86633332 71 191 C70.34 191 69.68 191 69 191 C68.01 193.97 68.01 193.97 67 197 C66.34 197 65.68 197 65 197 C64.731875 197.886875 64.46375 198.77375 64.1875 199.6875 C61.52683897 207.10934394 61.52683897 207.10934394 57.75 209.3125 C55.05658493 210.96527743 53.73992426 212.35011449 51.75 214.75 C48.54610607 218.57218925 45.05344605 221.45101438 41.015625 224.359375 C38.9109821 225.93432057 38.9109821 225.93432057 37.40234375 228.15625 C36 230 36 230 33.3125 230.75 C32.549375 230.8325 31.78625 230.915 31 231 C31 231.66 31 232.32 31 233 C28.56401192 234.31537364 26.1263175 235.62739143 23.6875 236.9375 C22.99720703 237.31068359 22.30691406 237.68386719 21.59570312 238.06835938 C20.92861328 238.42607422 20.26152344 238.78378906 19.57421875 239.15234375 C18.65515747 239.6472229 18.65515747 239.6472229 17.7175293 240.15209961 C16 241 16 241 13 242 C12.67 242.66 12.34 243.32 12 244 C9.09740189 245.3749149 7.23861295 246 4 246 C4 246.66 4 247.32 4 248 C-0.33279483 249.58516884 -4.43843766 250.37390321 -9 251 C-9.33 251.33 -9.66 251.66 -10 252 C-18.12938845 254.42894664 -26.41186832 254.27267137 -34.81298828 254.22705078 C-36.28242485 254.22648557 -37.75186198 254.22680538 -39.22129822 254.22793579 C-43.18137397 254.228506 -47.14132679 254.21680589 -51.10137415 254.20278788 C-55.2506716 254.19022476 -59.39997235 254.18910564 -63.54928589 254.18673706 C-71.39361658 254.18053861 -79.23789105 254.16415008 -87.08219707 254.14403808 C-96.01816397 254.12162799 -104.95413366 254.11067284 -113.8901217 254.10064721 C-132.26011292 254.07978229 -150.63005193 254.04463834 -169 254 C-169.02338923 235.51055468 -169.04100874 217.02111237 -169.05181217 198.53165531 C-169.05696234 189.94614733 -169.06398062 181.36064856 -169.07543945 172.77514648 C-169.08542542 165.28960061 -169.09186273 157.8040614 -169.09408849 150.31850904 C-169.09538896 146.35719345 -169.09843268 142.39589694 -169.10573006 138.43458748 C-169.11255205 134.70084311 -169.11460445 130.96712556 -169.11310768 127.23337555 C-169.113511 125.22049618 -169.11887384 123.20761969 -169.12442017 121.19474792 C-169.11708536 114.7086824 -168.87636342 108.42857317 -168 102 C-167.34 102 -166.68 102 -166 102 C-165.95875 100.72125 -165.9175 99.4425 -165.875 98.125 C-165.08909332 89.75811653 -161.80143608 81.86458203 -159 74 C-158.34 74 -157.68 74 -157 74 C-156.89042969 73.45859375 -156.78085937 72.9171875 -156.66796875 72.359375 C-154.51064582 64.73935717 -150.15750173 57.88883724 -145.2578125 51.7578125 C-143.53237292 49.3464839 -142.71443818 46.85775271 -142 44 C-141.34 44 -140.68 44 -140 44 C-140 43.34 -140 42.68 -140 42 C-139.34 42 -138.68 42 -138 42 C-137.79375 41.46890625 -137.5875 40.9378125 -137.375 40.390625 C-135.42038808 36.99226564 -132.77876283 34.48944072 -130 31.75 C-129.18015625 30.91855469 -129.18015625 30.91855469 -128.34375 30.0703125 C-124.2533867 26 -124.2533867 26 -122 26 C-122 25.34 -122 24.68 -122 24 C-121.4225 23.7525 -120.845 23.505 -120.25 23.25 C-117.90652273 22.0985301 -117.90652273 22.0985301 -116.1875 20.0625 C-113.4200688 17.45320772 -110.49933894 16.4256566 -107 15 C-106.34 14.34 -105.68 13.68 -105 13 C-104.360625 12.855625 -103.72125 12.71125 -103.0625 12.5625 C-100.9317812 12.17274124 -100.9317812 12.17274124 -99.65625 10.5859375 C-97.69155542 8.70464976 -95.97931443 8.01313044 -93.4375 7.0625 C-92.55320312 6.72605469 -91.66890625 6.38960937 -90.7578125 6.04296875 C-89.84773437 5.69878906 -88.93765625 5.35460937 -88 5 C-86.26984778 4.29407736 -84.54064864 3.58581343 -82.8125 2.875 C-79.88054151 1.69574225 -76.98418865 0.65189381 -73.9375 -0.1875 C-71.13201378 -0.70364869 -71.13201378 -0.70364869 -70 -2 C-67.66666667 -2.33333333 -65.33333333 -2.66666667 -63 -3 C-62.67 -3.33 -62.34 -3.66 -62 -4 C-41.52086035 -6.85018954 -19.92825054 -5.33585288 0 0 Z " fill="#FEFEFE" transform="translate(767,211)"/>
<path d="M0 0 C2.19701697 -0.00107412 4.39403367 -0.00301472 6.59104919 -0.00575256 C12.53038643 -0.01058047 18.46964799 -0.00297301 24.40897608 0.00720048 C30.62648077 0.0160054 36.84398326 0.01422312 43.06149292 0.01383972 C54.15716074 0.01483446 65.2527961 0.02514704 76.34845363 0.03974178 C86.41541226 0.0527942 96.48234953 0.05823749 106.54931641 0.05761719 C107.21196106 0.05757723 107.87460571 0.05753728 108.5573305 0.05749611 C109.21883003 0.05745575 109.88032955 0.0574154 110.56187451 0.05737382 C122.17233608 0.05676467 133.78278725 0.06185713 145.3932457 0.07016563 C150.33822587 0.07370364 155.28320237 0.0755296 160.22818375 0.07605934 C166.03779591 0.07705996 171.84738107 0.08313337 177.65698433 0.09322548 C179.79482292 0.09615831 181.93266462 0.09737428 184.07050514 0.09679794 C186.97510267 0.09631099 189.87962333 0.10192562 192.78421021 0.10920715 C193.64147552 0.10765855 194.49874083 0.10610995 195.38198388 0.10451442 C201.18220712 0.12874032 201.18220712 0.12874032 202.29638672 1.24291992 C202.39423083 3.93622761 202.42632467 6.60388161 202.41664124 9.29762268 C202.41792287 10.57909798 202.41792287 10.57909798 202.4192304 11.88646168 C202.42088783 14.77165932 202.41535956 17.65679983 202.40991211 20.54199219 C202.40963027 22.60122679 202.40978791 24.6604615 202.41035461 26.71969604 C202.41064271 32.3289708 202.40474406 37.93822437 202.39778066 43.54749417 C202.39154909 49.40250623 202.39094348 55.25751871 202.38975525 61.11253357 C202.38664135 72.20832753 202.37842717 83.30411169 202.36840576 94.39990133 C202.35724644 107.02846166 202.35173463 119.65702245 202.34671032 132.28558648 C202.33624461 158.27136973 202.31864403 184.25714428 202.29638672 210.24291992 C201.63638672 210.24291992 200.97638672 210.24291992 200.29638672 210.24291992 C200.31995239 211.1483252 200.31995239 211.1483252 200.34399414 212.07202148 C200.84455807 234.23200789 200.84455807 234.23200789 197.29638672 244.24291992 C196.26523393 240.97378368 196.33248832 238.38250644 196.73388672 234.99291992 C196.83572266 234.10088867 196.93755859 233.20885742 197.04248047 232.28979492 C197.12626953 231.61432617 197.21005859 230.93885742 197.29638672 230.24291992 C197.95638672 230.24291992 198.61638672 230.24291992 199.29638672 230.24291992 C199.29638672 154.67291992 199.29638672 79.10291992 199.29638672 1.24291992 C145.15576172 1.45948242 145.15576172 1.45948242 89.92138672 1.68041992 C78.50625488 1.72352295 67.09112305 1.76662598 55.33007812 1.81103516 C45.13663959 1.85426755 45.13663959 1.85426755 34.94320679 1.89881897 C30.38746757 1.91869477 25.8317269 1.93577004 21.27597046 1.95118713 C15.47485397 1.97090887 9.67377554 1.99532561 3.87269282 2.0232259 C1.73742697 2.03268061 -0.39784712 2.0404488 -2.53312564 2.04638946 C-5.4051317 2.05461556 -8.27704471 2.06886217 -11.14901733 2.08470154 C-12.41809402 2.08616731 -12.41809402 2.08616731 -13.71280861 2.0876627 C-17.84087655 2.01196141 -17.84087655 2.01196141 -21.70361328 3.24291992 C-23.57740933 3.31325761 -25.4536243 3.32722212 -27.32861328 3.30541992 C-28.33150391 3.29639648 -29.33439453 3.28737305 -30.36767578 3.27807617 C-31.13853516 3.26647461 -31.90939453 3.25487305 -32.70361328 3.24291992 C-32.70361328 2.91291992 -32.70361328 2.58291992 -32.70361328 2.24291992 C-21.97730875 -0.55714299 -10.98960856 -0.03121109 0 0 Z " fill="#62ACFA" transform="translate(374.70361328125,486.757080078125)"/>
<path d="M0 0 C0.66 0 1.32 0 2 0 C2 1.65 2 3.3 2 5 C2.66 5 3.32 5 4 5 C4.27263672 6.14275391 4.27263672 6.14275391 4.55078125 7.30859375 C6.09656412 13.65819415 7.87725354 19.82364729 10 26 C11.5312319 30.76383257 12.34173647 35.21682688 12.75390625 40.1796875 C12.81510058 42.01709988 12.81510058 42.01709988 14 43 C14.09771507 45.47891971 14.12995957 47.92994777 14.12025452 50.40931702 C14.12153615 51.58666173 14.12153615 51.58666173 14.12284368 52.78779119 C14.12450087 55.43805859 14.11897324 58.08826375 14.11352539 60.73852539 C14.11324354 62.63027444 14.1134012 64.5220236 14.1139679 66.41377258 C14.11425597 71.5664511 14.10835765 76.71910655 14.10139394 81.87177968 C14.09516204 87.25032896 14.09455673 92.6288787 14.09336853 98.00743103 C14.09025473 108.20011824 14.08204069 118.39279479 14.07201904 128.58547729 C14.06085941 140.18624568 14.05534783 151.78701457 14.05032361 163.38778698 C14.03985811 187.25853058 14.02225773 211.12926469 14 235 C-9.9388063 235.02333805 -33.8776109 235.04098364 -57.81642628 235.05181217 C-68.93108818 235.0569732 -80.04574302 235.06401223 -91.16040039 235.07543945 C-100.84549056 235.08539218 -110.53057562 235.09185484 -120.21567076 235.09408849 C-125.34604029 235.09539459 -130.47639518 235.09847414 -135.60676003 235.10573006 C-140.43211594 235.11249953 -145.25745115 235.11461505 -150.08281136 235.11310768 C-151.85697797 235.11338359 -153.63114525 235.11538323 -155.40530777 235.11920547 C-157.82152587 235.12415716 -160.23766509 235.12299278 -162.65388489 235.12025452 C-163.71467883 235.12462378 -163.71467883 235.12462378 -164.79690295 235.12908131 C-167.81738662 235.11978503 -170.10829151 234.96390283 -173 234 C-174.89212737 233.77820215 -176.78884472 233.59385985 -178.6875 233.4375 C-179.68136719 233.35371094 -180.67523438 233.26992188 -181.69921875 233.18359375 C-182.45847656 233.12300781 -183.21773438 233.06242188 -184 233 C-184 232.34 -184 231.68 -184 231 C-186.64 231 -189.28 231 -192 231 C-192 230.67 -192 230.34 -192 230 C-190.37509046 229.97301811 -188.75005367 229.95361243 -187.125 229.9375 C-186.22007812 229.92589844 -185.31515625 229.91429687 -184.3828125 229.90234375 C-182 230 -182 230 -180 231 C-177.9625237 231.22858114 -175.91959697 231.41024278 -173.875 231.5625 C-172.77929688 231.64628906 -171.68359375 231.73007812 -170.5546875 231.81640625 C-169.71164062 231.87699219 -168.86859375 231.93757812 -168 232 C-168 232.66 -168 233.32 -168 234 C-108.6 234 -49.2 234 12 234 C11.90925128 201.25188967 11.90925128 201.25188967 11.79101562 168.50390625 C11.73665993 155.13721979 11.68524157 141.77057062 11.65356445 128.40380859 C11.63047367 118.66612398 11.59695363 108.9285384 11.55129844 99.19093251 C11.52751457 94.0426867 11.5086892 88.89453806 11.50238609 83.74623871 C11.49626731 78.88378676 11.47602784 74.02158297 11.44572449 69.15922356 C11.43705162 67.39060386 11.43319884 65.62195159 11.43499184 63.85331154 C11.44153701 54.40368746 10.95610517 45.20883249 9.59797668 35.84771729 C9.41134556 34.54175964 9.41134556 34.54175964 9.22094411 33.20941901 C8.88988072 31.12612135 8.45464119 29.0598625 8 27 C7.34 26.67 6.68 26.34 6 26 C5.47265625 23.3046875 5.47265625 23.3046875 5.0625 19.875 C4.34355601 14.65409723 3.21961949 10.72875457 1 6 C0.60235737 4.01178687 0.24544834 2.01267638 0 0 Z " fill="#E8EFFD" transform="translate(561,229)"/>
<path d="M0 0 C0.89383896 -0.00085602 1.78767792 -0.00171204 2.70860291 -0.00259399 C5.73107865 -0.00425703 8.75349972 0.00128715 11.77597046 0.00672913 C13.96890956 0.00703527 16.16184877 0.0069023 18.35478783 0.00636387 C24.24500216 0.00613745 30.13519632 0.0119472 36.02540588 0.0189743 C41.54585842 0.02465528 47.06630596 0.02493666 52.58676147 0.02565002 C68.74797836 0.03090427 84.90919146 0.04486533 101.07040405 0.05775452 C137.16415405 0.07837952 173.25790405 0.09900452 210.44540405 0.12025452 C210.44540405 75.69025452 210.44540405 151.26025452 210.44540405 229.12025452 C209.78540405 229.12025452 209.12540405 229.12025452 208.44540405 229.12025452 C208.52790405 230.37837952 208.61040405 231.63650452 208.69540405 232.93275452 C208.72635584 243.73492665 205.50685118 254.81889864 202.44540405 265.12025452 C201.78540405 265.12025452 201.12540405 265.12025452 200.44540405 265.12025452 C200.44540405 267.10025452 200.44540405 269.08025452 200.44540405 271.12025452 C199.78540405 271.12025452 199.12540405 271.12025452 198.44540405 271.12025452 C198.44540405 272.77025452 198.44540405 274.42025452 198.44540405 276.12025452 C198.11540405 276.12025452 197.78540405 276.12025452 197.44540405 276.12025452 C197.07036576 270.99473124 198.29944802 267.74231367 200.44540405 263.12025452 C202.24369141 258.42472643 202.9311028 254.0918333 203.44540405 249.12025452 C204.10540405 249.12025452 204.76540405 249.12025452 205.44540405 249.12025452 C205.43380249 248.40998108 205.42220093 247.69970764 205.4102478 246.96791077 C205.40122437 246.0488092 205.39220093 245.12970764 205.38290405 244.18275452 C205.37130249 243.26623108 205.35970093 242.34970764 205.3477478 241.40541077 C205.44540405 239.12025452 205.44540405 239.12025452 206.44540405 238.12025452 C206.65509156 235.79039328 206.81355794 233.45581416 206.94540405 231.12025452 C207.33429294 224.23136563 207.33429294 224.23136563 208.44540405 223.12025452 C208.55575352 220.2632575 208.60037537 217.42991695 208.60362244 214.57202148 C208.60856041 213.66461844 208.61349839 212.75721539 208.618586 211.82231528 C208.63404165 208.75748643 208.64234333 205.69267865 208.65072632 202.62782288 C208.66029851 200.44050916 208.67030819 198.25319731 208.6807251 196.06588745 C208.70785162 190.10747095 208.7288191 184.14904647 208.74872708 178.19060206 C208.77053903 171.97122018 208.79795107 165.75186311 208.82478333 159.53250122 C208.86908756 149.08707256 208.90991177 138.64163501 208.9480896 128.19618225 C208.98742932 117.43542995 209.02885187 106.67468901 209.0730896 95.91395569 C209.07717601 94.91968025 209.07717601 94.91968025 209.08134497 93.90531843 C209.0950242 90.58012511 209.10874676 87.25493196 209.12248528 83.92973888 C209.23640503 56.32660064 209.34322219 28.72343853 209.44540405 1.12025452 C181.48194225 1.2274108 153.51850785 1.34015724 125.55509567 1.45959377 C112.57176366 1.51491689 99.58842891 1.56839742 86.60507202 1.61756897 C75.29131204 1.66042194 63.97757223 1.70670279 52.66384339 1.75713307 C46.67105127 1.78372499 40.67826312 1.8085779 34.68544769 1.82932854 C29.04832264 1.84890166 23.41123593 1.87304756 17.77414513 1.90074539 C15.70208367 1.91011223 13.6300138 1.91778883 11.55793953 1.92367363 C8.73480201 1.93194099 5.91175739 1.94621957 3.08865356 1.96203613 C1.85129979 1.96350329 1.85129979 1.96350329 0.58894897 1.96500009 C-2.97607432 1.9907851 -6.11770212 2.23985115 -9.55459595 3.12025452 C-12.81319981 3.37226255 -16.06634906 3.56086225 -19.32998657 3.72572327 C-22.73336762 3.63195723 -22.73336762 3.63195723 -25.55459595 5.12025452 C-28.08055854 5.35678974 -30.58566802 5.54199143 -33.11709595 5.68275452 C-34.1834729 5.74752991 -34.1834729 5.74752991 -35.27139282 5.81361389 C-37.03221507 5.91997228 -38.79337915 6.02064298 -40.55459595 6.12025452 C-33.55432688 1.45340847 -24.82363478 1.78199907 -16.67544556 1.46180725 C-10.92623332 1.22365258 -5.83351297 -0.02008279 0 0 Z " fill="#E8F0FE" transform="translate(363.5545959472656,487.87974548339844)"/>
<path d="M0 0 C0.33 0 0.66 0 1 0 C0.67 49.83 0.34 99.66 0 151 C36.3515625 150.7834375 36.3515625 150.7834375 73.4375 150.5625 C81.10282959 150.51939697 88.76815918 150.47629395 96.66577148 150.43188477 C103.508862 150.38865385 103.508862 150.38865385 110.35194397 150.34410095 C113.4110574 150.32421975 116.47017299 150.30714638 119.52931213 150.29173279 C123.4240877 150.27201846 127.31880644 150.24760389 131.21353161 150.21969402 C132.64748776 150.2102354 134.08145624 150.20246859 135.51543128 150.19653046 C137.4433313 150.18831107 139.37119978 150.17346757 141.29905701 150.15821838 C142.38216376 150.15176583 143.46527052 150.14531328 144.58119869 150.1386652 C146.94978939 150.2720363 146.94978939 150.2720363 148 149 C150.33333333 148.66666667 152.66666667 148.33333333 155 148 C155.33 147.67 155.66 147.34 156 147 C157.546875 146.7834375 157.546875 146.7834375 159.125 146.5625 C162.94345392 146.0082083 166.32219105 145.12585988 170 144 C170 143.34 170 142.68 170 142 C173.3 141.67 176.6 141.34 180 141 C177.08235 142.9451 175.37462715 143.45276317 172 144 C172 144.66 172 145.32 172 146 C167.66720517 147.58516884 163.56156234 148.37390321 159 149 C158.67 149.33 158.34 149.66 158 150 C149.87061155 152.42894664 141.58813168 152.27267137 133.18701172 152.22705078 C131.71757515 152.22648557 130.24813802 152.22680538 128.77870178 152.22793579 C124.81862603 152.228506 120.85867321 152.21680589 116.89862585 152.20278788 C112.7493284 152.19022476 108.60002765 152.18910564 104.45071411 152.18673706 C96.60638342 152.18053861 88.76210895 152.16415008 80.91780293 152.14403808 C71.98183603 152.12162799 63.04586634 152.11067284 54.1098783 152.10064721 C35.73988708 152.07978229 17.36994807 152.04463834 -1 152 C-1.02338923 133.51055468 -1.04100874 115.02111237 -1.05181217 96.53165531 C-1.05696234 87.94614733 -1.06398062 79.36064856 -1.07543945 70.77514648 C-1.08542542 63.28960061 -1.09186273 55.8040614 -1.09408849 48.31850904 C-1.09538896 44.35719345 -1.09843268 40.39589694 -1.10573006 36.43458748 C-1.11255205 32.70084311 -1.11460445 28.96712556 -1.11310768 25.23337555 C-1.113511 23.22049618 -1.11887384 21.20761969 -1.12442017 19.19474792 C-1.11708536 12.7086824 -0.87636342 6.42857317 0 0 Z " fill="#A3CBFB" transform="translate(599,313)"/>
<path d="M0 0 C0.66 0 1.32 0 2 0 C2 1.65 2 3.3 2 5 C2.66 5 3.32 5 4 5 C4.18175781 5.76183594 4.36351562 6.52367187 4.55078125 7.30859375 C6.09656412 13.65819415 7.87725354 19.82364729 10 26 C11.5312319 30.76383257 12.34173647 35.21682688 12.75390625 40.1796875 C12.81510058 42.01709988 12.81510058 42.01709988 14 43 C14.09771507 45.47891971 14.12995957 47.92994777 14.12025452 50.40931702 C14.12110894 51.19421349 14.12196337 51.97910997 14.12284368 52.78779119 C14.12450087 55.43805859 14.11897324 58.08826375 14.11352539 60.73852539 C14.11324354 62.63027444 14.1134012 64.5220236 14.1139679 66.41377258 C14.11425597 71.5664511 14.10835765 76.71910655 14.10139394 81.87177968 C14.09516204 87.25032896 14.09455673 92.6288787 14.09336853 98.00743103 C14.09025473 108.20011824 14.08204069 118.39279479 14.07201904 128.58547729 C14.06085941 140.18624568 14.05534783 151.78701457 14.05032361 163.38778698 C14.03985811 187.25853058 14.02225773 211.12926469 14 235 C13.67 235 13.34 235 13 235 C12.99503478 233.57951811 12.99503478 233.57951811 12.98996925 232.13033962 C12.90897073 209.08673029 12.81665381 186.04318748 12.71247292 162.99967098 C12.66235377 151.85599579 12.61591071 140.71232792 12.578125 129.56860352 C12.5451812 119.85560109 12.50533668 110.14265567 12.45720994 100.42971617 C12.43196879 95.28693201 12.4101804 90.14418555 12.39665604 85.00135612 C12.38381415 80.15951075 12.36173664 75.31779481 12.33261681 70.47602081 C12.3235577 68.70032464 12.31785469 66.92460762 12.31578636 65.14888954 C12.31245205 62.72081237 12.29694317 60.29309959 12.2784729 57.86509705 C12.281375 56.81594373 12.281375 56.81594373 12.28433573 55.7455954 C12.23272366 51.19403954 11.38166335 47.32358554 10 43 C9.7680178 41.62395097 9.57165492 40.24056542 9.4375 38.8515625 C9.36273437 38.15675781 9.28796875 37.46195312 9.2109375 36.74609375 C9.06800434 35.30882142 8.92745236 33.87131065 8.7890625 32.43359375 C8.59107298 30.61413834 8.30292901 28.80495204 8 27 C7.34 26.67 6.68 26.34 6 26 C5.47265625 23.3046875 5.47265625 23.3046875 5.0625 19.875 C4.34355601 14.65409723 3.21961949 10.72875457 1 6 C0.60235737 4.01178687 0.24544834 2.01267638 0 0 Z " fill="#A0CAFB" transform="translate(561,229)"/>
<path d="M0 0 C1.55118743 3.96632735 0.37462964 6.80289395 -0.875 10.75 C-2.43222176 15.89420155 -3.57208127 20.65101588 -4 26 C-4.99 26 -5.98 26 -7 26 C-7.02312916 33.28421548 -7.04091801 40.5684231 -7.05181217 47.85266781 C-7.05703975 51.23471813 -7.06413511 54.6167434 -7.07543945 57.9987793 C-7.08834267 61.88329777 -7.09322924 65.76780597 -7.09765625 69.65234375 C-7.10281754 70.87211411 -7.10797882 72.09188446 -7.11329651 73.34861755 C-7.11340981 75.03024742 -7.11340981 75.03024742 -7.11352539 76.74584961 C-7.115746 77.73846298 -7.11796661 78.73107635 -7.12025452 79.75376892 C-7.25249942 81.97026525 -7.25249942 81.97026525 -6 83 C-5.92755947 85.01964199 -5.91622812 87.04167124 -5.9375 89.0625 C-5.94652344 90.16722656 -5.95554688 91.27195312 -5.96484375 92.41015625 C-5.97644531 93.26480469 -5.98804688 94.11945313 -6 95 C-5.34 95 -4.68 95 -4 95 C-3.86722656 95.95261719 -3.73445312 96.90523438 -3.59765625 97.88671875 C-3.42105469 99.14097656 -3.24445313 100.39523437 -3.0625 101.6875 C-2.88847656 102.92886719 -2.71445313 104.17023438 -2.53515625 105.44921875 C-2.10177103 108.32474548 -1.60350718 111.15644813 -1 114 C-5.20895589 111.19402941 -5.52907766 108.32408478 -6.51220703 103.47216797 C-7.06369994 100.46547599 -7.57151864 97.45465967 -8.0625 94.4375 C-8.2387793 93.35774902 -8.41505859 92.27799805 -8.59667969 91.16552734 C-9.77443645 83.77950079 -10.77575549 76.48416056 -11 69 C-11.0515625 67.77152344 -11.103125 66.54304688 -11.15625 65.27734375 C-11.5713558 50.45314171 -9.64099642 35.70786689 -8 21 C-7.34 21 -6.68 21 -6 21 C-6.04125 20.154375 -6.0825 19.30875 -6.125 18.4375 C-5.98464972 14.57786731 -5.17219836 11.66311987 -4 8 C-3.01 8 -2.02 8 -1 8 C-1.020625 7.05125 -1.04125 6.1025 -1.0625 5.125 C-1 2 -1 2 0 0 Z " fill="#C0DCFC" transform="translate(251,237)"/>
<path d="M0 0 C0.33 0 0.66 0 1 0 C1.06851898 29.22375408 1.12157087 58.44750243 1.15319599 87.67132048 C1.15694786 91.12576978 1.16083085 94.58021891 1.16479492 98.03466797 C1.16558185 98.72235226 1.16636878 99.41003654 1.16717956 100.11855975 C1.18021391 111.23613657 1.20385683 122.35366659 1.23145839 133.4712157 C1.25956757 144.8889197 1.2759635 156.30658582 1.28226548 167.72432542 C1.28617089 174.13325731 1.29532758 180.54208325 1.31719017 186.95098114 C1.33761878 192.98868485 1.34382088 199.02623939 1.33932304 205.06397438 C1.34014539 207.27459589 1.34607283 209.48522261 1.35761642 211.69581413 C1.46412153 233.15184111 1.46412153 233.15184111 -2 243 C-2.91585285 239.68196072 -2.96907495 237.18329961 -2.5625 233.75 C-2.46066406 232.85796875 -2.35882812 231.9659375 -2.25390625 231.046875 C-2.12822266 230.03367187 -2.12822266 230.03367187 -2 229 C-1.34 229 -0.68 229 0 229 C0 153.43 0 77.86 0 0 Z " fill="#A6CEFC" transform="translate(574,488)"/>
<path d="M0 0 C0.33 0 0.66 0 1 0 C1 1.98 1 3.96 1 6 C0.34 6 -0.32 6 -1 6 C-1.33 12.93 -1.66 19.86 -2 27 C-2.66 27 -3.32 27 -4 27 C-4 46.8 -4 66.6 -4 87 C-9.22054592 81.77945408 -7.11777342 68.81276444 -7.13922119 61.53129578 C-7.13866445 59.29166821 -7.13246087 57.05211451 -7.125 54.8125 C-7.12411377 54.04529633 -7.12322754 53.27809265 -7.12231445 52.48764038 C-7.10713019 41.29990122 -6.90155019 30.15668361 -6 19 C-5.34 19 -4.68 19 -4 19 C-3.87882813 17.87980469 -3.75765625 16.75960937 -3.6328125 15.60546875 C-3.46396733 14.13276364 -3.29467303 12.66010996 -3.125 11.1875 C-3.04636719 10.44951172 -2.96773437 9.71152344 -2.88671875 8.95117188 C-2.45539714 5.28493819 -2.0803217 3.12048255 0 0 Z " fill="#ACD3FC" transform="translate(175,636)"/>
<path d="M0 0 C2.32086619 0.00539622 4.6415417 0.00000016 6.96240234 -0.00634766 C16.43532892 -0.01166707 25.53193806 0.14302412 34.74755859 2.63037109 C38.67224267 3.68115666 42.54317002 4.51147271 46.56005859 5.13037109 C46.56005859 5.46037109 46.56005859 5.79037109 46.56005859 6.13037109 C43.41384177 5.99214911 40.26820293 5.84352025 37.12255859 5.69287109 C36.22472656 5.65355469 35.32689453 5.61423828 34.40185547 5.57373047 C33.54785156 5.53183594 32.69384766 5.48994141 31.81396484 5.44677734 C31.02320557 5.41011963 30.23244629 5.37346191 29.41772461 5.33569336 C27.56005859 5.13037109 27.56005859 5.13037109 26.56005859 4.13037109 C23.7012795 3.8933587 20.86122562 3.70817928 17.99755859 3.56787109 C16.7880957 3.5030957 16.7880957 3.5030957 15.55419922 3.43701172 C13.55637055 3.33061848 11.5582379 3.22996221 9.56005859 3.13037109 C9.56005859 2.47037109 9.56005859 1.81037109 9.56005859 1.13037109 C9.00769531 1.16066406 8.45533203 1.19095703 7.88623047 1.22216797 C-3.90277527 1.85703572 -15.63285021 2.28067353 -27.43994141 2.13037109 C-27.43994141 2.79037109 -27.43994141 3.45037109 -27.43994141 4.13037109 C-30.07994141 4.13037109 -32.71994141 4.13037109 -35.43994141 4.13037109 C-24.80897731 -1.36840344 -11.71786134 -0.03240421 0 0 Z " fill="#B6D5FC" transform="translate(408.43994140625,129.86962890625)"/>
<path d="M0 0 C0.33 0 0.66 0 1 0 C3.67638935 17.53990875 3.66736299 33.61327908 0 51 C-0.33417334 52.66649844 -0.66790684 54.33308578 -1 56 C-1.66 56 -2.32 56 -3 56 C-2.95875 57.093125 -2.9175 58.18625 -2.875 59.3125 C-3 63 -3 63 -5 66 C-4.85962479 64.18706911 -4.71255111 62.3746557 -4.5625 60.5625 C-4.48128906 59.55316406 -4.40007813 58.54382813 -4.31640625 57.50390625 C-4 55 -4 55 -3 54 C-2.79395915 52.67218122 -2.6337041 51.33704105 -2.5 50 C-2.11111111 46.11111111 -2.11111111 46.11111111 -1 45 C-0.87790076 43.58882298 -0.82229128 42.17179541 -0.79467773 40.75561523 C-0.7647599 39.40432777 -0.7647599 39.40432777 -0.73423767 38.02574158 C-0.71752518 37.04658279 -0.70081268 36.06742401 -0.68359375 35.05859375 C-0.66281265 34.06118668 -0.64203156 33.0637796 -0.62062073 32.03614807 C-0.55501363 28.83667157 -0.49618866 25.63711018 -0.4375 22.4375 C-0.39432538 20.27407961 -0.35071145 18.11066794 -0.30664062 15.94726562 C-0.19932097 10.63160126 -0.09757573 5.31585166 0 0 Z " fill="#D0E5FD" transform="translate(853,313)"/>
<path d="M0 0 C1.03833984 0.09087891 1.03833984 0.09087891 2.09765625 0.18359375 C35.53368262 4.97143658 35.53368262 4.97143658 68 0 C70.6723621 -0.13415472 73.32250488 -0.04318541 76 0 C74.68 0.33 73.36 0.66 72 1 C72 1.66 72 2.32 72 3 C60.8140717 3.8498489 49.6884435 4.18636147 38.47216797 4.18530273 C35.87060507 4.18750372 33.26945812 4.20579342 30.66796875 4.22460938 C11.36122021 4.29073935 11.36122021 4.29073935 2 2 C1.34 1.34 0.68 0.68 0 0 Z " fill="#BBD9FC" transform="translate(335,890)"/>
<path d="M0 0 C0.33 0 0.66 0 1 0 C1 3.63 1 7.26 1 11 C0.34 11 -0.32 11 -1 11 C-0.87625 12.8871875 -0.87625 12.8871875 -0.75 14.8125 C-0.71904822 25.61467213 -3.93855287 36.69864412 -7 47 C-7.66 47 -8.32 47 -9 47 C-9 48.98 -9 50.96 -9 53 C-9.66 53 -10.32 53 -11 53 C-11 54.65 -11 56.3 -11 58 C-11.33 58 -11.66 58 -12 58 C-12.37503829 52.87447673 -11.14595604 49.62205916 -9 45 C-7.20171265 40.30447191 -6.51430125 35.97157879 -6 31 C-5.34 31 -4.68 31 -4 31 C-4.01160156 30.28972656 -4.02320313 29.57945312 -4.03515625 28.84765625 C-4.04869141 27.46900391 -4.04869141 27.46900391 -4.0625 26.0625 C-4.07410156 25.14597656 -4.08570313 24.22945312 -4.09765625 23.28515625 C-4 21 -4 21 -3 20 C-2.71131944 16.54041557 -2.55098503 13.08048569 -2.37890625 9.61328125 C-2.01345468 6.12830497 -1.23876422 3.26492108 0 0 Z " fill="#D7E8FD" transform="translate(573,706)"/>
<path d="M0 0 C4 4.625 4 4.625 4 8 C4.66 8 5.32 8 6 8 C6.5259375 9.5778125 6.5259375 9.5778125 7.0625 11.1875 C9.00875052 16.48509897 11.86112076 21.27141465 14.671875 26.14453125 C16 29 16 29 15 32 C15 31.34 15 30.68 15 30 C14.01 30 13.02 30 12 30 C10.65411674 27.44342265 9.32324672 24.88076095 8 22.3125 C7.6184375 21.59126953 7.236875 20.87003906 6.84375 20.12695312 C4.8837916 16.29453447 3.44125747 13.42628851 4 9 C3.34 9 2.68 9 2 9 C0.50178941 5.62902617 0 3.79557881 0 0 Z " fill="#ACD1FC" transform="translate(181,762)"/>
<path d="M0 0 C-2.90600261 1.25664978 -4.79604584 2 -8 2 C-8 2.66 -8 3.32 -8 4 C-12.33279483 5.58516884 -16.43843766 6.37390321 -21 7 C-21.33 7.33 -21.66 7.66 -22 8 C-28.66523539 9.84472171 -35.11813996 10.2635606 -42 10 C-42 9.67 -42 9.34 -42 9 C-41.36191406 8.93941406 -40.72382812 8.87882812 -40.06640625 8.81640625 C-39.24011719 8.73261719 -38.41382813 8.64882813 -37.5625 8.5625 C-36.73878906 8.48128906 -35.91507813 8.40007812 -35.06640625 8.31640625 C-33.01337975 8.21069185 -33.01337975 8.21069185 -32 7 C-29.66666667 6.66666667 -27.33333333 6.33333333 -25 6 C-24.67 5.67 -24.34 5.34 -24 5 C-22.96875 4.855625 -21.9375 4.71125 -20.875 4.5625 C-17.05654608 4.0082083 -13.67780895 3.12585988 -10 2 C-10 1.34 -10 0.68 -10 0 C-6.33694766 -0.74926071 -3.57644848 -1.2380014 0 0 Z " fill="#94C3FC" transform="translate(779,455)"/>
<path d="M0 0 C0.33 0.99 0.66 1.98 1 3 C0.01 3.33 -0.98 3.66 -2 4 C-2 4.99 -2 5.98 -2 7 C-2.66 7 -3.32 7 -4 7 C-4.20625 7.556875 -4.4125 8.11375 -4.625 8.6875 C-6.59223543 11.99603232 -8.89062714 13.7155628 -12 16 C-12.99 16 -13.98 16 -15 16 C-16.69719127 16.94726954 -18.36935236 17.94228261 -20 19 C-20 18.34 -20 17.68 -20 17 C-15.64705882 13 -15.64705882 13 -12 13 C-11.34 11.68 -10.68 10.36 -10 9 C-9.34 9 -8.68 9 -8 9 C-8 8.34 -8 7.68 -8 7 C-6.25 5.2734375 -6.25 5.2734375 -4 3.375 C-3.2575 2.74335937 -2.515 2.11171875 -1.75 1.4609375 C-0.88375 0.73777344 -0.88375 0.73777344 0 0 Z " fill="#59ABFB" transform="translate(516,833)"/>
<path d="M0 0 C-0.64066406 0.10957031 -1.28132813 0.21914062 -1.94140625 0.33203125 C-7.34903442 1.32329543 -11.98674376 2.67241674 -17 5 C-27.36388761 9.59327499 -27.36388761 9.59327499 -33 9 C-33 9.66 -33 10.32 -33 11 C-36.465 12.485 -36.465 12.485 -40 14 C-40.33 13.34 -40.66 12.68 -41 12 C-39.68 12 -38.36 12 -37 12 C-37 11.34 -37 10.68 -37 10 C-36.01 10 -35.02 10 -34 10 C-34 9.34 -34 8.68 -34 8 C-30.12315913 6.80712589 -27.08378077 6 -23 6 C-23 5.34 -23 4.68 -23 4 C-21.68 4 -20.36 4 -19 4 C-19 3.34 -19 2.68 -19 2 C-16.69 2 -14.38 2 -12 2 C-12 1.34 -12 0.68 -12 0 C-3.96428571 -1.20535714 -3.96428571 -1.20535714 0 0 Z " fill="#8BBEFB" transform="translate(371,135)"/>
<path d="M0 0 C0.33 0 0.66 0 1 0 C1 1.98 1 3.96 1 6 C0.34 6 -0.32 6 -1 6 C-1.33 12.93 -1.66 19.86 -2 27 C-2.66 27 -3.32 27 -4 27 C-4 28.98 -4 30.96 -4 33 C-4.33 33 -4.66 33 -5 33 C-5 29.7 -5 26.4 -5 23 C-4.34 23 -3.68 23 -3 23 C-3.01160156 22.2265625 -3.02320313 21.453125 -3.03515625 20.65625 C-3.17287721 4.75931582 -3.17287721 4.75931582 0 0 Z " fill="#DBEAFD" transform="translate(175,636)"/>
<path d="M0 0 C1.62490954 -0.02698189 3.24994633 -0.04638757 4.875 -0.0625 C5.77992188 -0.07410156 6.68484375 -0.08570313 7.6171875 -0.09765625 C10 0 10 0 12 1 C14.0374763 1.22858114 16.08040303 1.41024278 18.125 1.5625 C19.76855469 1.68818359 19.76855469 1.68818359 21.4453125 1.81640625 C22.28835938 1.87699219 23.13140625 1.93757813 24 2 C24 2.66 24 3.32 24 4 C27.63 4 31.26 4 35 4 C35 4.33 35 4.66 35 5 C32.89590361 5.02701408 30.79170822 5.04640223 28.6875 5.0625 C27.51574219 5.07410156 26.34398437 5.08570313 25.13671875 5.09765625 C22 5 22 5 19 4 C17.10787263 3.77820215 15.21115528 3.59385985 13.3125 3.4375 C12.31863281 3.35371094 11.32476562 3.26992188 10.30078125 3.18359375 C9.16189453 3.09271484 9.16189453 3.09271484 8 3 C8 2.34 8 1.68 8 1 C5.36 1 2.72 1 0 1 C0 0.67 0 0.34 0 0 Z " fill="#CEE4FD" transform="translate(369,459)"/>
<path d="M0 0 C0.33 0 0.66 0 1 0 C1 1.65 1 3.3 1 5 C1.66 5 2.32 5 3 5 C3.144375 6.134375 3.28875 7.26875 3.4375 8.4375 C3.61171478 11.80777201 3.61171478 11.80777201 5 13 C5.04080783 14.99958364 5.04254356 17.00045254 5 19 C5.66 19 6.32 19 7 19 C7.33 21.64 7.66 24.28 8 27 C7.34 27 6.68 27 6 27 C6 25.02 6 23.04 6 21 C5.34 21 4.68 21 4 21 C2.40861915 16.82262526 1.78721942 13.46839215 2 9 C1.34 9 0.68 9 0 9 C0 6.03 0 3.06 0 0 Z " fill="#84BBFB" transform="translate(173,735)"/>
<path d="M0 0 C-2.90600261 1.25664978 -4.79604584 2 -8 2 C-8 2.66 -8 3.32 -8 4 C-9.98 4 -11.96 4 -14 4 C-14 4.66 -14 5.32 -14 6 C-18.17737474 7.59138085 -21.53160785 8.21278058 -26 8 C-22.05171097 4.52550566 -17.68211682 3.56465617 -12.625 2.5 C-12.08875 2.335 -11.5525 2.17 -11 2 C-10.67 1.34 -10.34 0.68 -10 0 C-6.35526801 -0.89093449 -3.57257469 -1.23666047 0 0 Z " fill="#8DBFFB" transform="translate(452,879)"/>
<path d="M0 0 C0.33 0 0.66 0 1 0 C1.61916858 26.17654243 1.61916858 26.17654243 -2 36 C-3.03115279 32.73086376 -2.9638984 30.13958652 -2.5625 26.75 C-2.46066406 25.85796875 -2.35882812 24.9659375 -2.25390625 24.046875 C-2.17011719 23.37140625 -2.08632813 22.6959375 -2 22 C-1.34 22 -0.68 22 0 22 C0 14.74 0 7.48 0 0 Z " fill="#82B8FB" transform="translate(574,695)"/>
<path d="M0 0 C-1.32 0.33 -2.64 0.66 -4 1 C-4 1.66 -4 2.32 -4 3 C-14.395 3.495 -14.395 3.495 -25 4 C-25 3.34 -25 2.68 -25 2 C-23.41058594 1.90912109 -23.41058594 1.90912109 -21.7890625 1.81640625 C-20.40102779 1.73199873 -19.01300768 1.64735083 -17.625 1.5625 C-16.92632812 1.52318359 -16.22765625 1.48386719 -15.5078125 1.44335938 C-10.03054718 1.10103029 -5.5949148 -0.09024056 0 0 Z " fill="#95C4FC" transform="translate(411,890)"/>
<path d="M0 0 C4.571279 0.54855348 8.67435795 1.41744803 13 3 C13 3.66 13 4.32 13 5 C14.65 5 16.3 5 18 5 C18 5.66 18 6.32 18 7 C13.71 6.34 9.42 5.68 5 5 C5 4.34 5 3.68 5 3 C4.360625 2.87625 3.72125 2.7525 3.0625 2.625 C2.381875 2.41875 1.70125 2.2125 1 2 C0.67 1.34 0.34 0.68 0 0 Z " fill="#BCD9FD" transform="translate(337,448)"/>
<path d="M0 0 C0.99 0.33 1.98 0.66 3 1 C2.32584613 6.2584002 0.75734451 11.02638346 -1 16 C-1.33 16 -1.66 16 -2 16 C-3.3592233 8.93203883 -3.3592233 8.93203883 -1 5 C-0.62331656 3.34259285 -0.27942455 1.67654729 0 0 Z " fill="#54A5FA" transform="translate(177,620)"/>
<path d="M0 0 C2.0625 0.4375 2.0625 0.4375 4 1 C0.24729305 4.75270695 -5.74713443 4.90231477 -10.8828125 5.125 C-13.25881788 5.125 -15.62586936 5.09092415 -18 5 C-18 4.67 -18 4.34 -18 4 C-17.04287109 3.90912109 -17.04287109 3.90912109 -16.06640625 3.81640625 C-14.82697266 3.69072266 -14.82697266 3.69072266 -13.5625 3.5625 C-12.32693359 3.44068359 -12.32693359 3.44068359 -11.06640625 3.31640625 C-9.01337975 3.21069185 -9.01337975 3.21069185 -8 2 C-5.66666667 1.66666667 -3.33333333 1.33333333 -1 1 C-0.67 0.67 -0.34 0.34 0 0 Z " fill="#7DB6FB" transform="translate(755,460)"/>
<path d="M0 0 C0.99 0.495 0.99 0.495 2 1 C2.81640625 3.546875 2.81640625 3.546875 3.5625 6.75 C3.81128906 7.79671875 4.06007812 8.8434375 4.31640625 9.921875 C4.91315237 12.60893752 5.47464745 15.29818689 6 18 C2.24094981 15.49396654 2.08350583 14.33402331 1 10 C0.56304214 6.67316173 0.25125404 3.3456459 0 0 Z " fill="#8DC0FB" transform="translate(244,333)"/>
<path d="M0 0 C-1.11375 0.4125 -2.2275 0.825 -3.375 1.25 C-5.83496502 2.16370129 -8.26653427 3.11157248 -10.6875 4.125 C-12.0178125 4.681875 -12.0178125 4.681875 -13.375 5.25 C-14.20773437 5.60578125 -15.04046875 5.9615625 -15.8984375 6.328125 C-18 7 -18 7 -20 6 C-19.34 5.34 -18.68 4.68 -18 4 C-16.68 4 -15.36 4 -14 4 C-14 3.34 -14 2.68 -14 2 C-12.68 2 -11.36 2 -10 2 C-10 1.34 -10 0.68 -10 0 C-2.25 -1.125 -2.25 -1.125 0 0 Z " fill="#8DBFFB" transform="translate(696,211)"/>
<path d="M0 0 C2.20923793 0.453953 4.41735553 0.91336006 6.625 1.375 C8.46964844 1.75785156 8.46964844 1.75785156 10.3515625 2.1484375 C13.65820196 2.92022273 16.80141713 3.86819375 20 5 C20 5.33 20 5.66 20 6 C17.36 6 14.72 6 12 6 C12 5.34 12 4.68 12 4 C9.69 4 7.38 4 5 4 C5 3.34 5 2.68 5 2 C3.35 1.67 1.7 1.34 0 1 C0 0.67 0 0.34 0 0 Z " fill="#75B3FB" transform="translate(305,883)"/>
<path d="M0 0 C0.33 0 0.66 0 1 0 C1 2.64 1 5.28 1 8 C0.34 8 -0.32 8 -1 8 C-1 12.62 -1 17.24 -1 22 C-1.33 22 -1.66 22 -2 22 C-2 16.06 -2 10.12 -2 4 C-1.34 4 -0.68 4 0 4 C0 2.68 0 1.36 0 0 Z " fill="#7CB6FB" transform="translate(171,651)"/>
<path d="M0 0 C1.10844919 3.32534757 0.84454356 5.62182575 0 9 C-0.66 9 -1.32 9 -2 9 C-2 10.65 -2 12.3 -2 14 C-2.66 14 -3.32 14 -4 14 C-3.71926927 11.85270859 -3.42511501 9.70716807 -3.125 7.5625 C-2.96257812 6.36753906 -2.80015625 5.17257812 -2.6328125 3.94140625 C-2.42398438 2.97074219 -2.21515625 2.00007812 -2 1 C-1.34 0.67 -0.68 0.34 0 0 Z " fill="#BBD9FC" transform="translate(183,613)"/>
<path d="M0 0 C-0.33 0.99 -0.66 1.98 -1 3 C-5.95 3.33 -10.9 3.66 -16 4 C-13.21530998 2.14353999 -11.7318584 1.54842185 -8.5625 0.875 C-7.41974609 0.62363281 -7.41974609 0.62363281 -6.25390625 0.3671875 C-4 0 -4 0 0 0 Z " fill="#C8E0FD" transform="translate(339,490)"/>
<path d="M0 0 C0.33 0 0.66 0 1 0 C1 1.98 1 3.96 1 6 C0.34 6 -0.32 6 -1 6 C-1 8.97 -1 11.94 -1 15 C-1.66 15 -2.32 15 -3 15 C-2.8858134 13.06183265 -2.75826577 11.12444901 -2.625 9.1875 C-2.55539063 8.10855469 -2.48578125 7.02960937 -2.4140625 5.91796875 C-2 3 -2 3 0 0 Z " fill="#A1CBFC" transform="translate(175,636)"/>
<path d="M0 0 C-5.22771463 3.04157942 -8.92671312 4.50610724 -15 4 C-12.56815788 1.56815788 -10.79947325 1.20248949 -7.5 0.3125 C-6.5203125 0.04050781 -5.540625 -0.23148437 -4.53125 -0.51171875 C-2 -1 -2 -1 0 0 Z " fill="#BFDAFD" transform="translate(320,495)"/>
<path d="M0 0 C1.58272601 3.16545202 0.33086619 5.74418878 -0.4375 9.125 C-0.72496094 10.40632813 -1.01242188 11.68765625 -1.30859375 13.0078125 C-1.53675781 13.99523437 -1.76492187 14.98265625 -2 16 C-2.33 16 -2.66 16 -3 16 C-3 13.03 -3 10.06 -3 7 C-2.34 7 -1.68 7 -1 7 C-1.020625 6.030625 -1.04125 5.06125 -1.0625 4.0625 C-1 1 -1 1 0 0 Z " fill="#7EB6FB" transform="translate(246,251)"/>
<path d="M0 0 C1.40907283 2.81814566 0.50872691 4.17277204 -0.4375 7.125 C-0.72496094 8.03507812 -1.01242187 8.94515625 -1.30859375 9.8828125 C-1.53675781 10.58148438 -1.76492188 11.28015625 -2 12 C-2.33 12 -2.66 12 -3 12 C-4.25 4.375 -4.25 4.375 -2 1 C-1.34 0.67 -0.68 0.34 0 0 Z " fill="#60ABFB" transform="translate(606,289)"/>
<path d="M0 0 C4.60853797 0.72008406 8.67237409 2.31295939 13 4 C9.06204091 5.22419163 6.83887763 4.48320272 3 3 C3 2.34 3 1.68 3 1 C2.01 0.67 1.02 0.34 0 0 Z " fill="#B2D3FC" transform="translate(462,139)"/>
<path d="M0 0 C1.485 0.99 1.485 0.99 3 2 C3.6875 5.625 3.6875 5.625 4 9 C3.01 8.67 2.02 8.34 1 8 C0.67 5.36 0.34 2.72 0 0 Z " fill="#C1DDFD" transform="translate(566,247)"/>
<path d="M0 0 C0.66 0 1.32 0 2 0 C1.34 3.63 0.68 7.26 0 11 C-0.99 11 -1.98 11 -3 11 C-2.01 7.37 -1.02 3.74 0 0 Z " fill="#B8D7FC" transform="translate(255,225)"/>
<path d="M0 0 C0.99 0.33 1.98 0.66 3 1 C3.33 3.64 3.66 6.28 4 9 C3.01 8.34 2.02 7.68 1 7 C0.3125 3.375 0.3125 3.375 0 0 Z " fill="#BAD8FC" transform="translate(250,352)"/>
</svg>
